<svg width="803" height="680" viewBox="0 0 903 780" fill="none" xmlns="http://www.w3.org/2000/svg">
<path d="M162.871 209.237C160.071 213.917 154.211 215.897 149.171 216.907C142.731 218.227 136.071 218.577 129.551 219.157L125.761 220.087C125.044 220.308 124.377 220.669 123.8 221.148C123.222 221.628 122.745 222.217 122.396 222.881C122.046 223.545 121.832 224.272 121.764 225.02C121.696 225.767 121.777 226.521 122.001 227.237C124.346 235.307 127.572 243.093 131.621 250.457L125.621 256.457C123.921 254.157 123.841 250.127 121.561 250.517C119.371 248.327 116.771 247.257 114.081 250.187C108.821 255.937 109.671 267.887 117.401 271.187L115.671 279.797C115.074 282.807 113.453 285.518 111.083 287.467C108.712 289.416 105.74 290.483 102.671 290.487L104.001 280.297C95.001 284.847 84.791 275.007 85.501 266.897C85.961 261.337 84.701 257.497 80.591 253.467C80.321 253.197 81.971 252.197 81.721 251.927C80.561 248.417 80.401 244.317 81.551 241.997C83.551 237.857 89.441 235.437 86.731 230.917C85.542 228.947 84.674 226.8 84.161 224.557C83.617 221.583 83.716 218.527 84.453 215.594C85.19 212.662 86.546 209.921 88.431 207.557C92.431 202.757 98.931 204.047 104.241 202.347C110.711 200.347 113.701 193.417 120.471 191.277C123.841 190.207 126.961 190.697 130.331 191.467C133.181 192.127 136.001 192.867 138.801 193.747C141.601 194.627 144.061 195.357 146.801 194.537C150.421 193.537 153.211 190.157 157.161 190.127C159.132 190.082 161.061 190.698 162.641 191.877C165.561 197.127 165.581 204.747 162.871 209.237Z" fill="#3FBDF1"/>
<path d="M39.1111 344.638C39.1111 344.638 -69.7589 224.558 90.571 164.638C99.868 161.229 109.558 159.005 119.411 158.018C145.001 155.298 201.571 145.628 208.091 112.968" stroke="#CCDDE2" stroke-width="4.11" stroke-miterlimit="10"/>
<path d="M496.131 176.538V176.508" stroke="#CCDDE2" stroke-width="4.11" stroke-miterlimit="10"/>
<path d="M210.471 392.748V392.718" stroke="black" stroke-width="4.11" stroke-miterlimit="10"/>
<path d="M125.351 255.658C124.285 253.816 123.017 252.098 121.571 250.538C119.381 248.348 116.781 247.278 114.091 250.208C108.831 255.958 109.681 267.908 117.411 271.208L115.681 279.818C115.084 282.828 113.463 285.538 111.093 287.487C108.722 289.436 105.75 290.504 102.681 290.508" stroke="black" stroke-width="4.11" stroke-linecap="round" stroke-linejoin="round"/>
<path d="M97.8408 328.607C98.2808 325.267 99.3708 316.497 100.421 308.137C101.421 300.387 102.311 292.927 102.661 290.467L104.001 280.297" stroke="black" stroke-width="4.11" stroke-linecap="round" stroke-linejoin="round"/>
<path d="M159.581 228.398C159.581 228.398 146.811 229.028 144.341 239.598" stroke="black" stroke-width="4.11" stroke-miterlimit="10"/>
<path d="M164.221 256.328C167.701 256.238 172.221 255.728 173.861 252.198L165.061 242.488C162.914 240.109 161.644 237.068 161.461 233.868C161.111 228.498 161.741 219.978 156.601 214.308" stroke="black" stroke-width="4.11" stroke-miterlimit="10"/>
<path d="M156.696 242.887C158.137 241.293 158.208 239.011 156.856 237.789C155.504 236.566 153.24 236.868 151.8 238.462C150.359 240.055 150.287 242.338 151.639 243.56C152.991 244.782 155.255 244.481 156.696 242.887Z" fill="black"/>
<path d="M155.831 320.108L149.201 287.968" stroke="black" stroke-width="4.11" stroke-miterlimit="10"/>
<path d="M323.901 464.757L281.171 499.697C332.581 578.097 293.671 592.487 293.671 592.487C286.123 593.932 278.502 594.957 270.841 595.557C233.681 598.237 195.561 588.647 164.931 567.167C102.931 523.667 48.9308 436.607 77.7309 360.807C80.1539 354.396 83.1149 348.2 86.5809 342.287C89.5679 337.147 93.3709 332.527 97.8409 328.607C105.665 321.758 115.3 317.313 125.589 315.807C135.877 314.301 146.382 315.798 155.841 320.117C159.462 321.77 162.887 323.823 166.051 326.237C182.241 338.627 196.961 356.237 209.651 374.717C220.918 391.429 231.058 408.875 240.001 426.937C242.471 431.867 244.711 436.527 246.691 440.797C264.641 433.537 279.691 421.207 293.691 407.887C276.761 439.487 323.901 464.757 323.901 464.757Z" fill="#353642"/>
<path d="M294.001 490.316C293.181 490.946 292.331 491.606 291.481 492.236" stroke="black" stroke-width="4.11" stroke-miterlimit="10"/>
<path d="M167.671 357.488C179.004 379.188 190.338 400.928 201.671 422.708C210.221 439.148 224.671 449.298 245.021 441.508C267.161 433.028 285.021 416.818 301.541 400.298C318.061 383.778 334.801 367.978 358.651 363.718C389.481 358.208 418.651 375.008 439.651 396.238C441.267 397.857 442.289 399.974 442.552 402.246C442.815 404.518 442.304 406.813 441.101 408.758C440.329 410.002 439.298 411.066 438.079 411.876C436.859 412.686 435.479 413.224 434.033 413.452C432.586 413.681 431.108 413.595 429.698 413.201C428.288 412.807 426.979 412.114 425.861 411.168C415.911 402.678 399.721 390.398 388.461 390.238" stroke="black" stroke-width="4.11" stroke-miterlimit="10"/>
<path d="M357.741 419.367C361.201 421.677 366.001 424.237 370.001 424.237" stroke="black" stroke-width="4.11" stroke-miterlimit="10"/>
<path d="M402.081 394.449C409.461 398.099 412.151 408.779 406.941 415.159C400.335 423.356 392.058 430.051 382.661 434.799C372.381 439.929 365.781 436.799 355.661 430.539" stroke="black" stroke-width="4.11" stroke-miterlimit="10"/>
<path d="M385.001 404.019C385.001 404.019 399.621 407.639 399.231 421.829C399.205 422.434 399.097 423.033 398.911 423.609" stroke="black" stroke-width="4.11" stroke-miterlimit="10"/>
<path d="M374.671 412.957C374.671 412.957 394.281 425.627 384.951 433.597" stroke="black" stroke-width="4.11" stroke-miterlimit="10"/>
<path d="M753.481 462.617C730.381 526.107 665.711 527.897 658.311 527.897C661.411 521.367 662.251 509.897 655.461 489.797C660.01 483.155 662.404 475.274 662.32 467.223C662.236 459.173 659.678 451.344 654.991 444.797C655.081 444.717 655.131 444.607 655.211 444.527C658.445 444.33 661.654 443.845 664.801 443.077C675.961 440.417 697.961 434.577 715.421 426.357C727.261 420.767 741.071 429.727 740.061 442.797C740.061 442.967 740.061 443.127 740.001 443.317C742.313 443.316 744.591 443.872 746.641 444.94C748.691 446.008 750.453 447.555 751.777 449.451C753.1 451.346 753.946 453.532 754.243 455.825C754.54 458.117 754.279 460.448 753.481 462.617Z" fill="#3FBDF1"/>
<path d="M457.051 611.529C449.271 624.879 437.161 636.249 425.461 646.169C384.271 681.029 330.461 698.729 276.461 699.419C222.281 698.729 168.271 680.969 126.891 646.419C-3.85915 537.239 19.7709 408.329 40.9209 348.639C41.6658 346.575 42.6742 344.616 43.9209 342.809C45.5746 340.39 47.7215 338.348 50.2206 336.818C52.7197 335.287 55.514 334.303 58.421 333.929C69.521 335.459 79.601 344.669 77.821 358.929C77.821 359.479 77.601 360.239 77.551 360.789C48.7709 436.589 102.791 523.649 164.751 567.149C192.861 586.879 227.281 596.579 261.481 595.949H261.871C264.804 595.889 267.734 595.753 270.661 595.539C289.871 594.139 308.541 589.539 327.031 583.969C348.731 577.479 370.191 569.609 391.871 564.099C399.491 562.159 407.131 560.289 414.811 558.539C419.243 557.63 423.776 557.317 428.291 557.609C454.921 559.409 473.631 583.089 457.051 611.529Z" fill="#D7E8F0"/>
<path d="M463.631 611.529C455.851 624.879 443.731 636.249 432.031 646.169C389.201 682.449 332.691 700.169 276.431 699.419C222.251 698.729 168.241 680.969 126.861 646.419C-3.85889 537.239 19.7711 408.329 40.9211 348.639C41.6661 346.575 42.6744 344.616 43.9211 342.809C45.5748 340.39 47.7217 338.348 50.2208 336.818C52.7199 335.287 55.515 334.303 58.421 333.929C69.521 335.459 79.601 344.669 77.821 358.929C77.821 359.479 77.601 360.239 77.551 360.789C48.7711 436.589 102.791 523.649 164.751 567.149C192.861 586.879 227.281 596.579 261.481 595.949H261.871C267.024 596.029 272.148 595.893 277.241 595.539C296.451 594.139 315.111 589.539 333.611 583.969C355.311 577.479 376.771 569.609 398.451 564.099C406.061 562.159 413.711 560.289 421.381 558.539C423.661 558.073 425.969 557.762 428.291 557.609C458.231 555.599 481.551 580.789 463.631 611.529Z" fill="#D7E8F0"/>
<path d="M285.461 699.236L298.621 717.856C298.621 717.856 378.251 720.956 421.831 757.536C429.891 764.306 425.071 777.456 414.551 777.456C411.913 777.465 409.358 776.537 407.341 774.836C397.051 766.196 357.741 739.036 268.821 738.216C182.181 737.406 148.951 764.216 139.761 773.986C138.713 775.09 137.45 775.967 136.05 776.564C134.65 777.16 133.143 777.464 131.621 777.456H129.911C119.111 777.456 114.541 763.816 123.071 757.196C159.451 728.906 241.001 719.886 241.001 719.886L254.921 698.886" fill="#353642"/>
<path d="M637.871 595.988C637.871 595.988 662.261 619.158 654.651 690.988C654.096 696.117 652.313 701.036 649.451 705.328L646.801 709.328C642.455 715.836 635.902 720.553 628.351 722.608C612.421 726.958 583.521 737.038 565.671 756.138C558.131 764.228 563.741 777.408 574.801 777.408C576.863 777.414 578.895 776.909 580.715 775.939C582.534 774.969 584.086 773.563 585.231 771.848C592.501 760.908 614.511 737.678 667.601 738.168C727.481 738.718 751.601 762.528 759.331 772.788C760.399 774.219 761.785 775.381 763.381 776.183C764.976 776.985 766.736 777.404 768.521 777.408C770.759 777.403 772.947 776.746 774.817 775.516C776.686 774.287 778.157 772.538 779.048 770.485C779.938 768.432 780.21 766.163 779.831 763.958C779.451 761.752 778.437 759.705 776.911 758.068C753.561 732.698 725.001 723.238 709.241 719.728C701.323 718.021 694.328 713.417 689.631 706.818C686.035 701.728 683.989 695.705 683.741 689.478C682.861 667.208 682.401 613.148 697.491 596.008" fill="#353642"/>
<path d="M327.231 583.997C370.121 563.177 416.671 549.517 462.441 536.657C508.501 523.717 555.011 512.427 601.661 501.817C620.301 497.587 639.111 493.817 657.661 489.047" stroke="black" stroke-width="4.11" stroke-miterlimit="10"/>
<path d="M367.471 423.949H367.501H367.521" stroke="black" stroke-width="4.11" stroke-miterlimit="10"/>
<path d="M362.661 421.239C359.971 423.899 350.371 438.109 347.961 440.659C334.721 454.848 320.657 468.245 305.841 480.779C302.111 483.879 298.161 487.079 294.001 490.319C293.181 490.949 292.331 491.609 291.481 492.239C263.281 513.639 226.481 534.239 192.481 521.039C191.581 520.709 190.701 520.329 189.831 519.939C137.681 496.589 101.231 438.109 98.0509 381.659C97.9409 379.819 97.8809 377.989 97.8609 376.179C97.5809 360.749 99.8609 345.319 114.661 337.179" stroke="black" stroke-width="4.11" stroke-miterlimit="10"/>
<path d="M77.811 360.588L78.021 358.948C81.341 332.328 43.5411 323.348 34.5711 348.638C13.4311 408.318 -10.2089 537.198 120.571 646.398C204.981 716.908 341.641 717.398 425.731 646.168C437.431 636.258 449.541 624.868 457.331 611.518C477.041 577.758 446.941 550.688 412.991 558.998" stroke="black" stroke-width="4.11" stroke-miterlimit="10"/>
<path d="M285.461 699.236L298.621 717.856C298.621 717.856 378.251 720.956 421.831 757.536C429.891 764.306 425.071 777.456 414.551 777.456C411.913 777.465 409.358 776.537 407.341 774.836C397.051 766.196 357.741 739.036 268.821 738.216C182.181 737.406 148.951 764.216 139.761 773.986C138.713 775.09 137.45 775.967 136.05 776.564C134.65 777.16 133.143 777.464 131.621 777.456H129.911C119.111 777.456 114.541 763.816 123.071 757.196C159.451 728.906 241.001 719.886 241.001 719.886L254.921 698.886" stroke="black" stroke-width="4.11" stroke-miterlimit="10"/>
<path d="M241.001 425.34C274.381 416.34 288.131 369.25 293.671 337.59" stroke="black" stroke-width="4.11" stroke-miterlimit="10"/>
<path d="M209.621 374.747C218.894 373.533 227.701 369.961 235.199 364.372C242.698 358.784 248.638 351.366 252.451 342.827C253.249 341.128 253.637 339.267 253.585 337.391C253.533 335.515 253.042 333.678 252.151 332.027C248.511 325.287 243.081 317.477 244.371 309.397C245.301 303.697 249.991 299.687 255.371 298.397C258.098 297.682 260.97 297.731 263.671 298.537C265.29 298.996 266.787 299.809 268.053 300.917C269.319 302.026 270.322 303.402 270.991 304.947C272.301 308.017 270.741 311.057 268.331 313.057C265.921 315.057 263.101 315.767 260.161 316.567C259.781 316.677 258.741 316.897 257.591 317.117" stroke="black" stroke-width="4.11" stroke-miterlimit="10"/>
<path d="M657.621 489.028C657.621 489.028 723.421 475.248 735.781 455.398C738.098 451.779 739.542 447.671 740.001 443.398" stroke="black" stroke-width="4.11" stroke-miterlimit="10"/>
<path d="M333.841 455.128C448.611 442.938 578.151 444.738 578.151 444.738H650.851C655.549 444.745 660.232 444.194 664.801 443.098C675.961 440.438 697.961 434.608 715.421 426.378C727.261 420.788 741.071 429.748 740.061 442.828C740.061 442.988 740.061 443.158 740.001 443.348C742.308 443.349 744.58 443.906 746.626 444.971C748.672 446.037 750.431 447.58 751.754 449.47C753.076 451.36 753.924 453.541 754.225 455.828C754.525 458.115 754.27 460.441 753.481 462.608C728.961 529.998 657.621 527.888 657.621 527.888C648.501 528.158 639.401 528.518 630.271 528.988C549.841 532.898 470.121 544.188 392.081 564.118C370.401 569.628 348.941 577.488 327.241 583.988C308.741 589.578 290.051 594.148 270.841 595.548C233.681 598.238 195.561 588.638 164.931 567.158C97.8407 520.078 40.1007 421.918 86.5807 342.238C102.991 314.118 140.151 306.418 166.051 326.238C202.581 354.188 231.761 408.638 246.731 440.758" stroke="black" stroke-width="4.11" stroke-miterlimit="10"/>
<path d="M751.961 595.988H592.241" stroke="black" stroke-width="4.11" stroke-miterlimit="10"/>
<path d="M560.001 563.727C560.025 555.177 563.431 546.985 569.475 540.938C575.52 534.892 583.712 531.483 592.261 531.457H752.001C760.552 531.48 768.746 534.888 774.793 540.935C780.84 546.981 784.247 555.176 784.271 563.727" stroke="black" stroke-width="4.11" stroke-miterlimit="10"/>
<path d="M787.411 575.168C787.419 577.905 786.886 580.617 785.841 583.147C784.797 585.678 783.263 587.976 781.327 589.911C779.391 591.846 777.092 593.379 774.561 594.422C772.03 595.465 769.318 595.997 766.581 595.988H577.581C572.85 595.54 568.484 593.254 565.421 589.621C562.358 585.987 560.843 581.297 561.202 576.559C561.561 571.82 563.765 567.411 567.34 564.281C570.916 561.15 575.577 559.548 580.321 559.818H769.321C772.676 559.813 775.983 560.62 778.957 562.172C781.932 563.724 784.486 565.973 786.401 568.728C787.07 570.809 787.411 572.982 787.411 575.168Z" fill="#D7E8F0"/>
<path d="M787.411 575.167C787.419 577.904 786.885 580.616 785.841 583.146C784.797 585.676 783.263 587.975 781.327 589.91C779.391 591.845 777.091 593.378 774.561 594.421C772.03 595.464 769.318 595.996 766.581 595.987H577.581C574.808 596.048 572.05 595.554 569.47 594.535C566.891 593.515 564.54 591.991 562.558 590.051C560.575 588.111 558.999 585.795 557.924 583.238C556.848 580.682 556.294 577.936 556.294 575.162C556.294 572.388 556.848 569.642 557.924 567.085C558.999 564.528 560.575 562.212 562.558 560.272C564.54 558.332 566.891 556.808 569.47 555.789C572.05 554.77 574.808 554.276 577.581 554.337H766.581C770.981 554.335 775.269 555.726 778.829 558.311C782.39 560.896 785.04 564.542 786.401 568.727C787.07 570.808 787.41 572.981 787.411 575.167Z" stroke="black" stroke-width="4.11" stroke-miterlimit="10"/>
<path d="M293.311 336.849L292.931 340.059C292.757 341.516 292.056 342.858 290.96 343.833C289.863 344.808 288.448 345.347 286.981 345.349H266.211C264.744 345.347 263.329 344.808 262.232 343.833C261.136 342.858 260.435 341.516 260.261 340.059L257.581 317.059C258.731 316.839 259.771 316.619 260.151 316.509C263.091 315.709 265.941 315.029 268.321 312.999C270.701 310.969 272.321 307.999 270.981 304.889C270.312 303.345 269.309 301.968 268.043 300.86C266.777 299.751 265.28 298.938 263.661 298.479C260.959 297.673 258.088 297.624 255.361 298.339L254.731 292.859C254.638 292.022 254.723 291.174 254.98 290.372C255.236 289.569 255.659 288.83 256.22 288.202C256.781 287.573 257.469 287.07 258.237 286.725C259.006 286.38 259.839 286.201 260.681 286.199H292.551C293.393 286.202 294.224 286.383 294.992 286.728C295.759 287.074 296.445 287.577 297.005 288.205C297.565 288.833 297.987 289.572 298.243 290.374C298.499 291.176 298.584 292.022 298.491 292.859L297.751 299.109" stroke="black" stroke-width="4.11" stroke-miterlimit="10"/>
<path d="M296.081 313.398L296.051 313.618" stroke="black" stroke-width="4.11" stroke-miterlimit="10"/>
<path d="M294.521 326.609V326.519" stroke="black" stroke-width="4.11" stroke-miterlimit="10"/>
<path d="M294.821 326.606C294.732 326.591 294.64 326.591 294.551 326.606C294.425 326.592 294.297 326.592 294.171 326.606C292.875 326.611 291.628 327.102 290.677 327.982C289.726 328.862 289.14 330.068 289.035 331.36C288.931 332.651 289.316 333.935 290.113 334.957C290.91 335.979 292.062 336.664 293.341 336.876C293.892 336.986 294.46 336.986 295.011 336.876C297.507 336.478 299.786 335.218 301.451 333.316C303.67 329.666 305.212 325.645 306.001 321.446C306.015 321.404 306.015 321.358 306.001 321.316C306.611 318.222 306.843 315.066 306.691 311.916C306.691 310.566 306.521 309.226 306.361 307.916C306.056 305.724 305.054 303.689 303.504 302.11C301.953 300.531 299.937 299.492 297.751 299.146C297.641 299.146 297.511 299.146 297.401 299.086C293.201 298.566 287.311 300.156 286.221 304.896C285.221 309.176 289.861 312.846 293.671 313.176C293.671 313.176 294.671 313.306 296.081 313.396C298.901 313.586 303.591 313.556 306.691 311.916C307.147 311.68 307.576 311.395 307.971 311.066" stroke="black" stroke-width="4.11" stroke-miterlimit="10"/>
<path d="M299.201 313.629H298.511H293.181H290.831C289.242 313.634 287.716 314.247 286.565 315.343C285.413 316.438 284.725 317.932 284.641 319.519C284.563 321.061 285.06 322.576 286.036 323.773C287.011 324.97 288.395 325.763 289.921 325.999C296.821 327.109 304.701 327.339 306.051 321.159" stroke="black" stroke-width="4.11" stroke-miterlimit="10"/>
<path d="M637.871 595.988C637.871 595.988 662.261 619.158 654.651 690.988C654.096 696.117 652.313 701.036 649.451 705.328L646.801 709.328C642.455 715.836 635.902 720.553 628.351 722.608C612.421 726.958 583.521 737.038 565.671 756.138C558.131 764.228 563.741 777.408 574.801 777.408C576.863 777.414 578.895 776.909 580.715 775.939C582.534 774.969 584.086 773.563 585.231 771.848C592.501 760.908 614.511 737.678 667.601 738.168C727.481 738.718 751.601 762.528 759.331 772.788C760.399 774.219 761.785 775.381 763.381 776.183C764.976 776.985 766.736 777.404 768.521 777.408C770.759 777.403 772.947 776.746 774.817 775.516C776.686 774.287 778.157 772.538 779.048 770.485C779.938 768.432 780.21 766.163 779.831 763.958C779.451 761.752 778.437 759.705 776.911 758.068C753.561 732.698 725.001 723.238 709.241 719.728C701.323 718.021 694.328 713.417 689.631 706.818C686.035 701.728 683.989 695.705 683.741 689.478C682.861 667.208 682.401 613.148 697.491 596.008" stroke="black" stroke-width="4.11" stroke-miterlimit="10"/>
<path d="M587.171 428.096V429.716C587.171 440.806 578.231 442.716 570.511 442.906L421.101 446.386C414.551 446.546 409.041 440.826 408.901 433.666V433.366C408.901 426.366 414.061 420.516 420.521 420.366C420.521 420.366 504.111 418.006 568.831 416.226C570.071 420.146 573.071 423.166 576.831 425.536C579.946 427.399 583.546 428.29 587.171 428.096Z" stroke="black" stroke-width="4.11" stroke-miterlimit="10"/>
<path d="M666.591 269.996C666.599 271.821 666.181 273.621 665.371 275.256L598.551 412.236C597.767 413.826 596.645 415.226 595.263 416.337C593.881 417.447 592.273 418.242 590.551 418.666C587.792 419.373 584.871 419.075 582.311 417.826C580.259 416.816 578.532 415.248 577.328 413.303C576.124 411.358 575.491 409.114 575.501 406.826C575.506 406.264 575.546 405.703 575.621 405.146C575.799 403.906 576.17 402.702 576.721 401.576L643.531 264.576C644.738 262.118 646.742 260.14 649.216 258.966C651.69 257.793 654.489 257.491 657.157 258.112C659.825 258.732 662.203 260.238 663.906 262.383C665.608 264.529 666.533 267.187 666.531 269.926L666.591 269.996Z" stroke="black" stroke-width="4.11" stroke-miterlimit="10"/>
<path d="M125.631 256.477C125.551 256.197 125.441 255.927 125.351 255.657C125.261 255.387 125.131 255.077 125.051 254.777" stroke="black" stroke-width="4.11" stroke-linecap="round" stroke-linejoin="round"/>
<path d="M125.631 256.487L127.681 254.427L131.601 250.457" stroke="black" stroke-width="4.11" stroke-linecap="round" stroke-linejoin="round"/>
<path d="M148.701 261.91C148.701 261.91 151.331 269.76 161.381 270.29" stroke="black" stroke-width="4.11" stroke-miterlimit="10"/>
<path d="M104.001 280.297C95.0009 284.847 84.7909 275.007 85.5009 266.897C85.9609 261.337 84.7009 257.498 80.5909 253.467C80.3209 253.197 80.0709 252.917 79.8309 252.647C78.2659 250.945 77.2489 248.812 76.9099 246.524C76.5709 244.237 76.9269 241.9 77.9309 239.817C79.8009 235.467 83.8309 232.917 81.0309 228.227C79.8019 226.199 78.9049 223.988 78.3709 221.677C77.8119 218.613 77.9169 215.465 78.6779 212.444C79.4389 209.424 80.8379 206.602 82.7809 204.167C86.9009 199.167 93.6109 200.547 99.1209 198.797C105.751 196.687 108.851 189.557 115.811 187.367C119.291 186.277 122.521 186.767 126.001 187.557C128.931 188.247 131.871 189.017 134.721 189.917C137.571 190.817 140.171 191.587 143.021 190.737C146.751 189.647 149.621 186.217 153.681 186.187C157.741 186.157 160.861 188.547 162.681 191.887C165.561 197.127 165.581 204.747 162.871 209.267C160.071 213.947 154.211 215.927 149.171 216.937C142.731 218.257 136.071 218.607 129.551 219.187L125.761 220.117C124.319 220.565 123.114 221.565 122.409 222.9C121.704 224.235 121.557 225.795 122.001 227.237C124.346 235.307 127.572 243.094 131.621 250.457" stroke="black" stroke-width="4.11" stroke-miterlimit="10"/>
<path d="M131.601 281.446C131.601 281.446 151.441 295.976 162.751 287.966C174.061 279.956 167.671 256.476 167.671 256.476" stroke="black" stroke-width="4.11" stroke-linecap="round" stroke-linejoin="round"/>
<path d="M271.791 276.168C271.791 276.168 263.361 270.468 268.721 264.648C274.081 258.828 266.941 251.148 266.941 251.148" stroke="black" stroke-width="4.11" stroke-miterlimit="10"/>
<path d="M279.571 277.157C279.571 277.157 285.151 273.387 281.571 269.527C277.991 265.667 282.761 260.527 282.761 260.527" stroke="black" stroke-width="4.11" stroke-miterlimit="10"/>
<path d="M318.021 222.84C378.728 222.84 427.941 173.627 427.941 112.92C427.941 52.213 378.728 3 318.021 3C257.314 3 208.101 52.213 208.101 112.92C208.101 173.627 257.314 222.84 318.021 222.84Z" stroke="#CCDDE2" stroke-width="4.11" stroke-miterlimit="10"/>
<path d="M318.021 173.287C351.362 173.287 378.391 146.258 378.391 112.917C378.391 79.5751 351.362 52.5471 318.021 52.5471C284.679 52.5471 257.651 79.5751 257.651 112.917C257.651 146.258 284.679 173.287 318.021 173.287Z" stroke="#CCDDE2" stroke-width="4.11" stroke-miterlimit="10"/>
<path d="M318.021 123.266C323.737 123.266 328.371 118.632 328.371 112.916C328.371 107.2 323.737 102.566 318.021 102.566C312.305 102.566 307.671 107.2 307.671 112.916C307.671 118.632 312.305 123.266 318.021 123.266Z" stroke="#CCDDE2" stroke-width="4.11" stroke-miterlimit="10"/>
<path d="M339.451 78.3589L323.471 104.119" stroke="#CCDDE2" stroke-width="4.11" stroke-miterlimit="10"/>
<path d="M318.021 52.5471V63.2871" stroke="#CCDDE2" stroke-width="4.11" stroke-miterlimit="10"/>
<path d="M378.391 112.918H368.211" stroke="#CCDDE2" stroke-width="4.11" stroke-miterlimit="10"/>
<path d="M318.021 173.299V162.859" stroke="#CCDDE2" stroke-width="4.11" stroke-miterlimit="10"/>
<path d="M257.641 112.918H266.821" stroke="#CCDDE2" stroke-width="4.11" stroke-miterlimit="10"/>
<path d="M423.371 295.679C445.959 295.679 464.271 277.367 464.271 254.779C464.271 232.19 445.959 213.879 423.371 213.879C400.783 213.879 382.471 232.19 382.471 254.779C382.471 277.367 400.783 295.679 423.371 295.679Z" fill="#3FBDF1"/>
<path d="M436.821 241.118C436.244 239.788 435.468 238.554 434.521 237.458C432.9 235.541 430.636 234.28 428.153 233.912C425.67 233.544 423.138 234.094 421.031 235.458C419.657 236.354 418.508 237.556 417.675 238.97C416.843 240.384 416.348 241.971 416.231 243.608C414.078 242.819 411.727 242.751 409.532 243.415C407.338 244.078 405.418 245.438 404.064 247.288C402.709 249.138 401.993 251.378 402.023 253.671C402.053 255.963 402.828 258.184 404.231 259.998C407.161 263.818 412.141 266.328 416.651 267.788C419.016 268.545 421.452 269.061 423.921 269.328C425.171 269.468 432.301 270.428 432.921 269.328C437.371 262.368 440.531 249.618 436.821 241.118Z" fill="white"/>
<g opacity="0.72">
<path opacity="0.72" d="M525.311 237.848C537.749 237.848 547.831 227.766 547.831 215.328C547.831 202.891 537.749 192.808 525.311 192.808C512.874 192.808 502.791 202.891 502.791 215.328C502.791 227.766 512.874 237.848 525.311 237.848Z" fill="#3FBDF1"/>
<path opacity="0.72" d="M535.081 219.317C535.639 218.749 536.104 218.098 536.461 217.387C537.103 216.161 537.276 214.742 536.946 213.398C536.617 212.054 535.808 210.876 534.671 210.087C533.928 209.574 533.077 209.24 532.183 209.111C531.29 208.983 530.378 209.064 529.521 209.347C529.473 208.085 529.015 206.873 528.218 205.894C527.42 204.915 526.326 204.222 525.1 203.919C523.874 203.617 522.583 203.721 521.421 204.217C520.26 204.712 519.291 205.572 518.661 206.667C517.436 209.143 516.96 211.924 517.291 214.667C517.404 216.021 517.651 217.361 518.031 218.667C518.221 219.337 519.221 223.167 519.901 223.287C524.371 224.037 531.531 222.987 535.081 219.317Z" fill="white"/>
</g>
<path d="M493.04 321.673L482.335 344.31C478.453 352.518 481.96 362.318 490.168 366.2L512.804 376.905C521.012 380.787 530.813 377.279 534.695 369.071L545.4 346.435C549.281 338.227 545.774 328.426 537.566 324.545L514.93 313.84C506.722 309.958 496.921 313.465 493.04 321.673Z" fill="#3FBDF1"/>
<path d="M539.291 350.398L531.541 366.788C529.915 370.202 527.004 372.834 523.445 374.11C519.885 375.385 515.965 375.201 512.541 373.598L492.881 364.298C489.469 362.67 486.839 359.759 485.566 356.199C484.292 352.64 484.477 348.721 486.081 345.298L486.601 344.198C491.941 339.938 501.171 334.198 504.541 342.008C509.391 353.288 515.701 349.648 523.761 344.928C530.491 340.948 538.571 339.618 539.291 350.398Z" fill="white"/>
<path d="M508.841 332.979C512.182 332.979 514.891 330.27 514.891 326.929C514.891 323.587 512.182 320.879 508.841 320.879C505.5 320.879 502.791 323.587 502.791 326.929C502.791 330.27 505.5 332.979 508.841 332.979Z" fill="white"/>
<path d="M612.061 247.428C613.264 249.621 614.137 251.98 614.651 254.428C615.567 258.906 615.304 263.546 613.888 267.891C612.471 272.237 609.95 276.14 606.571 279.218C603.891 281.588 600.481 283.438 597.771 285.918C595.794 287.624 594.338 289.853 593.571 292.348C593.431 293.201 593.088 294.007 592.571 294.698C590.991 296.398 589.441 293.698 588.071 293.238C585.863 292.52 583.468 292.637 581.341 293.568C575.748 295.907 569.519 296.239 563.709 294.509C557.899 292.779 552.867 289.092 549.464 284.075C546.062 279.058 544.5 273.018 545.042 266.981C545.585 260.943 548.199 255.279 552.441 250.948C556.631 246.678 562.111 243.948 567.441 241.168C572.101 238.698 576.741 236.068 581.801 234.588C593.661 231.038 606.321 236.948 612.061 247.428Z" fill="#3FBDF1"/>
<path d="M564.301 278.318C567.449 278.318 570.001 275.766 570.001 272.618C570.001 269.47 567.449 266.918 564.301 266.918C561.153 266.918 558.601 269.47 558.601 272.618C558.601 275.766 561.153 278.318 564.301 278.318Z" fill="white"/>
<path d="M579.651 270.107C582.799 270.107 585.351 267.555 585.351 264.407C585.351 261.259 582.799 258.707 579.651 258.707C576.503 258.707 573.951 261.259 573.951 264.407C573.951 267.555 576.503 270.107 579.651 270.107Z" fill="white"/>
<path d="M594.051 262.408C597.199 262.408 599.751 259.856 599.751 256.708C599.751 253.56 597.199 251.008 594.051 251.008C590.903 251.008 588.351 253.56 588.351 256.708C588.351 259.856 590.903 262.408 594.051 262.408Z" fill="white"/>
<path d="M420.261 72.5081C420.261 72.5081 457.791 188.588 602.261 182.318C650.261 176.318 707.391 182.318 758.261 249.318C835.591 351.238 804.541 464.777 769.401 536.847" stroke="#CCDDE2" stroke-width="4.11" stroke-miterlimit="10"/>
<g opacity="0.54">
<path opacity="0.54" d="M629.091 118.097C628.949 119.848 628.679 121.586 628.281 123.297L623.781 142.817C622.401 148.817 620.851 155.097 616.571 159.477C608.571 167.637 595.271 165.767 584.151 163.297L556.851 157.237C550.581 155.847 544.211 154.417 538.591 151.307C532.971 148.197 528.091 143.107 526.791 136.817C525.791 132.177 526.861 127.377 527.881 122.757L532.001 104.017C533.371 97.8769 534.911 91.3969 539.341 86.9269C547.231 78.9769 560.341 80.7869 571.241 83.1569L599.201 89.2369C616.061 92.8769 630.431 100.697 629.091 118.097Z" fill="#3FBDF1"/>
<path opacity="0.54" d="M591.441 118.618C592.61 119.705 593.473 121.081 593.941 122.607C594.41 124.134 594.468 125.757 594.111 127.313C593.753 128.869 592.991 130.303 591.903 131.472C590.815 132.64 589.438 133.501 587.911 133.968L579.591 136.518L571.271 139.068C569.744 139.535 568.121 139.592 566.565 139.233C565.01 138.874 563.576 138.113 562.407 137.024C561.239 135.936 560.378 134.56 559.91 133.033C559.442 131.507 559.383 129.884 559.741 128.328L561.741 119.848L563.691 111.378C564.047 109.821 564.807 108.386 565.895 107.216C566.983 106.047 568.359 105.184 569.886 104.716C571.413 104.247 573.036 104.19 574.592 104.548C576.149 104.907 577.583 105.669 578.751 106.758L585.121 112.688L591.441 118.618Z" fill="white"/>
</g>
<path d="M39.481 777.41H903.001" stroke="black" stroke-width="4.11" stroke-miterlimit="10"/>
</svg>
